HIERARCHY
ROOT Hips
{
  OFFSET 0 0 0
  CHANNELS 6 Xposition Yposition Zposition Zrotation Yrotation Xrotation
  JOINT LeftThigh
  {
    OFFSET 8.409438 0 -5.917753
    CHANNELS 3 Zrotation Yrotation Xrotation
    JOINT LeftLeg
    {
      OFFSET 0 0 -42.358652
      CHANNELS 3 Zrotation Yrotation Xrotation
      JOINT LeftFoot
      {
        OFFSET 0 0 -39.357303
        CHANNELS 3 Zrotation Yrotation Xrotation
      }
    }
  }
  JOINT RightThigh
  {
    OFFSET -8.409438 0 -5.917753
    CHANNELS 3 Zrotation Yrotation Xrotation
    JOINT RightLeg
    {
      OFFSET 0 0 -42.358652
      CHANNELS 3 Zrotation Yrotation Xrotation
      JOINT RightFoot
      {
        OFFSET 0 0 -39.357303
        CHANNELS 3 Zrotation Yrotation Xrotation
      }
    }
  }
  JOINT SpineLow
  {
    OFFSET 0 0 4.719101
    CHANNELS 3 Zrotation Yrotation Xrotation
    JOINT SpineMid
    {
      OFFSET 0 0 12.899191
      CHANNELS 3 Zrotation Yrotation Xrotation
      JOINT Chest
      {
        OFFSET 0 0 12.899191
        CHANNELS 3 Zrotation Yrotation Xrotation
        JOINT LeftShoulder
        {
          OFFSET 7.550562 1.41573 9.438202
          CHANNELS 3 Zrotation Yrotation Xrotation
          JOINT LeftArm
          {
            OFFSET 9.155056 0 4.247191
            CHANNELS 3 Zrotation Yrotation Xrotation
            JOINT LeftForearm
            {
              OFFSET 0 0 25.771955
              CHANNELS 3 Zrotation Yrotation Xrotation
              JOINT LeftHand
              {
                OFFSET 0 0 25.197169
                CHANNELS 3 Zrotation Yrotation Xrotation
              }
            }
          }
        }
        JOINT RightShoulder
        {
          OFFSET -7.550562 1.41573 9.438202
          CHANNELS 3 Zrotation Yrotation Xrotation
          JOINT RightArm
          {
            OFFSET -9.155056 0 4.247191
            CHANNELS 3 Zrotation Yrotation Xrotation
            JOINT RightForearm
            {
              OFFSET 0 0 -25.771955
              CHANNELS 3 Zrotation Yrotation Xrotation
              JOINT RightHand
              {
                OFFSET 0 0 -25.197169
                CHANNELS 3 Zrotation Yrotation Xrotation
              }
            }
          }
        }
        JOINT Neck
        {
          OFFSET 0 0 15.101124
          CHANNELS 3 Zrotation Yrotation Xrotation
          JOINT Head
          {
            OFFSET 0 0 11.325843
            CHANNELS 3 Zrotation Yrotation Xrotation
            End Site
            {
              OFFSET 0 0 14.157303
            }
          }
        }
      }
    }
  }
}
MOTION
Frames: 14
Frame Time: 0.0
0.0  93.25843  0.0  -10.929245  -40.182991  -80.840827  26.339692  -19.887728  -1.386871  3.164978  0.913302  16.356172  3.360481  1.670309  1.996696  10.655914  -5.968836  -13.20237  4.967728  8.750266  11.153455  -2.428331  0.917615  -0.943998  -5.407124  -2.397035  -0.76275  -14.748773  -6.684158  -1.542157  -14.748773  -6.684159  -1.542156  -12.452077  6.903905  9.872139  -9.279418  57.444632  45.057382  -19.155858  -7.625444  135.272977  70.006802  -40.005697  21.048225  12.890863  -5.381814  34.552955  103.364368  40.395319  61.512752  -32.456285  6.565272  -121.476449  85.63041  -15.461872  -1.02114  22.770871  3.266523  5.866597  17.044091  2.673263  4.283921  
0.0  93.25843  0.0  -10.840816  -40.373608  -81.007559  26.374925  -20.028437  -1.306746  3.369182  1.115115  16.650306  3.326905  1.67426  2.011475  10.610736  -5.902689  -12.883302  4.848562  8.655446  11.116489  -2.457037  0.919182  -0.998935  -5.304946  -2.309165  -0.722008  -14.472159  -6.434643  -1.460695  -14.472159  -6.434643  -1.460695  -12.617427  6.14975  9.736718  -8.389865  57.544232  45.973019  -19.166411  -7.621058  135.381318  69.932552  -39.981941  21.041233  12.518178  -5.625948  34.130728  102.975444  40.267592  61.533413  -32.68304  6.668128  -121.580134  85.634424  -15.38114  -1.704744  22.695195  3.185543  5.521965  16.989926  2.59881  4.028526  
0.0  93.25843  0.0  -10.829924  -39.950723  -80.901748  26.824597  -20.161517  -1.192677  2.835512  1.233551  16.490118  3.568255  1.740515  2.227325  9.57863  -6.037401  -12.85587  4.803288  8.547105  11.08487  -2.144027  0.914367  -0.960317  -5.354861  -2.29379  -0.719807  -14.609117  -6.393189  -1.453119  -14.609117  -6.393189  -1.453119  -12.296463  5.777615  9.585581  -8.248918  57.499274  46.156817  -19.200361  -7.259937  135.556342  70.069229  -40.010746  20.79113  12.562491  -5.64821  33.611682  102.663702  40.006322  61.513623  -32.697002  6.627261  -121.549796  85.533361  -15.333766  -2.027375  23.159769  3.235014  5.295954  17.338775  2.631763  3.854694  
0.0  93.25843  0.0  -10.669794  -39.940424  -81.091723  26.934278  -20.216517  -1.176109  2.569762  1.376777  16.699456  3.492497  1.776158  2.203577  9.104017  -5.977706  -12.581025  4.759827  8.444184  11.125053  -2.16977  0.923903  -1.001473  -5.307806  -2.23489  -0.723533  -14.479472  -6.23312  -1.480721  -14.479471  -6.233119  -1.480721  -12.27575  5.562947  9.537641  -8.497299  57.426299  45.8959  -19.254635  -6.682219  135.693074  70.365412  -40.019253  20.492242  12.514106  -5.76409  33.409557  102.387424  39.917321  61.519998  -32.595336  6.560424  -121.471195  85.286124  -15.451444  -1.892896  23.236977  3.101406  5.071302  17.399212  2.523504  3.69078  
0.0  93.25843  0.0  -10.491641  -39.550885  -81.339006  27.636444  -20.196466  -0.756478  1.477043  1.4426  16.301281  3.379359  1.786389  2.130965  8.219427  -6.005062  -12.314379  4.345329  8.413856  11.080679  -1.899443  0.994336  -0.99045  -5.340292  -2.193453  -0.753531  -14.565543  -6.127609  -1.568426  -14.565542  -6.127609  -1.568426  -11.854928  5.694937  9.633802  -9.223982  57.245293  45.390741  -19.463109  -6.339094  135.781078  70.588199  -39.978853  20.192866  12.484038  -5.874821  33.217476  102.446635  39.642512  61.648122  -32.433162  6.529799  -121.38978  85.015933  -15.72632  -1.410989  23.405221  2.969935  5.002511  17.527121  2.423546  3.64348  
0.0  93.25843  0.0  -10.163265  -39.252593  -81.783015  27.422435  -20.243335  -0.516552  0.966224  1.597315  16.329852  3.318444  1.812914  2.090404  7.537806  -5.877553  -11.954206  4.335107  8.438608  11.228029  -1.851578  0.979749  -1.01215  -5.320641  -2.128693  -0.77608  -14.5095  -5.956134  -1.645833  -14.5095  -5.956135  -1.645833  -11.906152  5.831743  9.682192  -9.910861  57.229354  44.703812  -19.629689  -6.100886  135.709243  71.070086  -39.944171  20.002669  12.540857  -5.9955  33.270072  102.390699  39.693283  61.695377  -32.294274  6.52776  -121.310802  84.8386  -16.028516  -0.777465  23.415792  2.836963  4.983744  17.536558  2.32301  3.63453  
0.0  93.25843  0.0  -9.941909  -38.589603  -82.132371  27.300121  -20.310363  -0.076837  0.953455  1.791325  16.595771  2.47688  1.51982  1.420082  6.538518  -5.890101  -11.70096  4.443417  8.541104  11.477277  -1.740502  0.986219  -1.030395  -5.415369  -2.113024  -0.817611  -14.765317  -5.924627  -1.753743  -14.765317  -5.924627  -1.753743  -10.898612  6.403595  9.877357  -10.885816  57.09526  44.203171  -19.834972  -6.348825  135.722961  71.595292  -39.887445  19.673811  13.058194  -5.977256  33.473507  100.716276  40.762826  60.681824  -30.720256  7.041271  -121.645258  84.8204  -16.278314  -0.21344  23.623655  2.786157  5.110041  17.692477  2.291515  3.730548  
0.0  93.25843  0.0  -9.606031  -38.055329  -82.5625  26.587322  -20.388806  0.281204  0.613547  1.958305  16.462935  2.433886  1.516307  1.372729  5.835611  -5.79277  -11.498548  4.670036  8.726062  11.847912  -1.642389  0.981363  -1.040949  -5.42068  -2.075042  -0.846531  -14.777336  -5.82794  -1.840454  -14.777336  -5.82794  -1.840454  -10.75416  6.701376  9.922086  -11.369236  57.282095  43.903473  -20.070836  -6.865278  135.522918  72.104354  -39.864063  19.331837  13.335628  -6.00422  33.655245  100.739209  40.856379  60.715262  -30.720485  7.124131  -121.675277  84.830269  -16.492372  0.325326  23.607253  2.746082  5.191255  17.680296  2.264412  3.793198  
0.0  93.25843  0.0  -9.419357  -37.356251  -82.820682  25.941923  -20.587205  0.68651  0.954172  2.27112  16.650888  1.739168  1.301704  0.798781  5.29309  -5.802814  -11.46658  4.854293  8.921389  12.298412  -1.583141  0.978376  -1.039911  -5.459341  -2.067368  -0.889684  -14.87946  -5.817614  -1.956232  -14.879461  -5.817614  -1.956232  -10.145083  7.132909  10.082036  -11.40153  57.642927  43.966961  -20.366117  -7.832042  135.718797  72.597145  -39.805071  19.031673  13.729111  -5.984752  33.903831  100.591091  41.050704  60.593209  -31.010929  7.081714  -121.701313  84.672982  -16.570206  0.328429  23.604755  2.69686  5.318231  17.678476  2.232332  3.890528  
0.0  93.25843  0.0  -9.090027  -36.577524  -83.12709  24.853893  -20.64518  0.941335  0.964681  2.479762  16.499926  1.784238  1.286077  0.794626  5.044666  -5.65217  -11.49443  4.977513  9.113929  12.810909  -1.593487  0.957596  -1.015323  -5.462808  -2.041581  -0.934691  -14.88512  -5.757695  -2.08426  -14.885121  -5.757695  -2.08426  -9.94991  7.424925  10.190884  -11.337656  58.007869  44.321692  -20.636348  -9.04223  135.494365  72.85814  -39.697209  18.790187  14.001397  -5.994052  34.12022  100.656989  41.10742  60.623854  -31.206248  7.348062  -121.803829  84.758297  -16.736037  0.675216  23.532319  2.6801  5.390105  17.624072  2.221863  3.945456  
0.0  93.25843  0.0  -8.792118  -35.649854  -83.394848  23.815251  -20.723721  1.103545  1.152403  2.712211  16.469295  1.58362  1.243007  0.639661  4.73446  -5.54517  -11.493515  5.355041  9.360591  13.394052  -1.582189  0.926645  -1.00067  -5.49612  -2.021361  -0.96984  -14.973442  -5.711538  -2.181545  -14.973442  -5.711538  -2.181545  -9.557032  7.704655  10.278785  -10.818099  58.562351  45.046973  -20.879328  -10.674623  135.424044  72.946276  -39.503243  18.550749  14.435362  -6.032069  34.297345  100.571478  41.225393  60.600508  -31.408598  7.642225  -121.909476  84.924311  -16.818889  0.802688  23.536768  2.649877  5.412191  17.627663  2.20005  3.963216  
0.0  93.25843  0.0  -8.414468  -34.652657  -83.722673  22.991463  -20.737406  1.163361  1.173791  2.900632  16.402089  1.545148  1.187475  0.638245  4.411598  -5.293369  -11.389372  5.256706  9.595446  13.748232  -1.650473  0.907228  -0.989703  -5.489695  -1.981  -0.987898  -14.954615  -5.605748  -2.240311  -14.954615  -5.605747  -2.240311  -9.382066  7.906039  10.275308  -10.131823  59.230018  46.047175  -21.025804  -12.422474  135.170799  72.93501  -39.219287  18.388062  14.688716  -6.105499  34.343449  100.536589  41.22637  60.601346  -31.613541  7.9656  -121.978222  84.95571  -16.934401  1.031197  23.43637  2.629982  5.322113  17.552926  2.180707  3.896706  
0.0  93.25843  0.0  -8.015781  -33.659483  -84.236154  22.53034  -20.781735  1.305492  1.094441  3.049894  16.37677  1.346856  1.104171  0.576461  4.162483  -4.95642  -11.006097  5.535798  9.814455  14.162075  -1.856166  0.744316  -0.96358  -5.452588  -1.921898  -0.955513  -14.85623  -5.436845  -2.16845  -14.856231  -5.436845  -2.16845  -9.287875  8.048643  10.175845  -9.046598  60.108321  47.377455  -21.104679  -14.348809  134.852285  72.817618  -38.943893  18.193269  14.894741  -6.184932  34.245563  100.35288  41.247904  60.520368  -31.975622  8.171263  -121.951511  85.004555  -16.967169  1.012381  23.325793  2.625414  5.154575  17.47067  2.16985  3.771446  
0.0  93.25843  0.0  -7.527512  -32.325206  -84.795073  22.068751  -20.769172  1.392585  0.806366  3.131867  16.305852  1.115502  1.040942  0.536144  3.440919  -4.537635  -10.621583  5.156781  9.993593  14.345923  -1.901429  0.73569  -0.953581  -5.434151  -1.847778  -0.93452  -14.80811  -5.230236  -2.129236  -14.808109  -5.230236  -2.129235  -9.249972  8.24796  10.194579  -7.599591  61.18868  48.991997  -21.127433  -16.399872  134.432361  72.803416  -38.620378  17.893182  15.033102  -6.266721  34.196829  100.177857  41.20428  60.402664  -32.170553  8.455562  -121.911288  85.071565  -17.004371  1.254405  23.096876  2.595875  4.98743  17.299928  2.139301  3.64789  
